<?xml version="1.0" encoding="UTF-8"?> <svg xmlns="http://www.w3.org/2000/svg" width="2542" height="757" viewBox="0 0 2542 757" fill="none"> <path d="M1524.36 573.295C1211.7 462.274 1158.84 348.417 748.423 457.311C477.701 529.198 594.604 290.283 204.927 233H181V744H2208V281.917C2208 281.917 1824.7 679.921 1524.36 573.295Z" fill="url(#paint0_linear)"></path> <g filter="url(#filter0_d)"> <path d="M-197.517 40C-179.046 40 -148.699 52.9872 -133.856 57.4259C-80.4209 73.5365 -27.3154 90.6336 21.832 110.032C154.761 162.803 272.187 233.328 320.345 315.197C341.125 350.871 371.141 394.764 441.069 413.341C519.243 434.219 611.93 417.286 695.052 418.766C810.499 420.738 866.573 468.413 943.098 503.429C1001.48 530.225 1101.43 517.567 1157.83 498.662C1225.45 475.975 1293.07 430.931 1383.12 434.712C1546.06 441.288 1653.26 570.667 1837.32 505.566C1894.05 485.51 1936.27 437.178 1953.09 404.957C1974.86 364.022 1971.56 320.458 1999.6 280.345C2067.22 183.681 2315.93 187.627 2483.49 197.983C2541.87 201.6 2599.6 207.19 2656 215.738V758H-278V40H-197.517Z" fill="#2C4664"></path> </g> <g filter="url(#filter1_d)"> <path d="M-192.517 50C-174.046 50 -143.699 62.9872 -128.856 67.4259C-75.4209 83.5365 -22.3154 100.634 26.832 120.032C159.761 172.803 277.187 243.328 325.345 325.197C346.125 360.871 376.141 404.764 446.069 423.341C524.243 444.219 616.93 427.286 700.052 428.766C815.499 430.738 871.573 478.413 948.098 513.429C1006.48 540.225 1106.43 527.567 1162.83 508.662C1230.45 485.975 1298.07 440.931 1388.12 444.712C1551.06 451.288 1658.26 580.667 1842.32 515.566C1899.05 495.51 1941.27 447.178 1958.09 414.957C1979.86 374.022 1976.56 330.458 2004.6 290.345C2072.22 193.681 2320.93 197.627 2488.49 207.983C2546.87 211.6 2604.6 217.19 2661 225.738V757H-273V50H-192.517Z" fill="#597492"></path> </g> <defs> <filter id="filter0_d" x="-318" y="0" width="3014" height="798" filterUnits="userSpaceOnUse" color-interpolation-filters="sRGB"> <feFlood flood-opacity="0" result="BackgroundImageFix"></feFlood> <feColorMatrix in="SourceAlpha" type="matrix" values="0 0 0 0 0 0 0 0 0 0 0 0 0 0 0 0 0 0 127 0"></feColorMatrix> <feOffset></feOffset> <feGaussianBlur stdDeviation="20"></feGaussianBlur> <feColorMatrix type="matrix" values="0 0 0 0 0.115238 0 0 0 0 0.271655 0 0 0 0 0.36713 0 0 0 0.1 0"></feColorMatrix> <feBlend mode="normal" in2="BackgroundImageFix" result="effect1_dropShadow"></feBlend> <feBlend mode="normal" in="SourceGraphic" in2="effect1_dropShadow" result="shape"></feBlend> </filter> <filter id="filter1_d" x="-313" y="14" width="3014" height="787" filterUnits="userSpaceOnUse" color-interpolation-filters="sRGB"> <feFlood flood-opacity="0" result="BackgroundImageFix"></feFlood> <feColorMatrix in="SourceAlpha" type="matrix" values="0 0 0 0 0 0 0 0 0 0 0 0 0 0 0 0 0 0 127 0"></feColorMatrix> <feOffset dy="4"></feOffset> <feGaussianBlur stdDeviation="20"></feGaussianBlur> <feColorMatrix type="matrix" values="0 0 0 0 0.612081 0 0 0 0 0.426756 0 0 0 0 0.426756 0 0 0 0.09 0"></feColorMatrix> <feBlend mode="normal" in2="BackgroundImageFix" result="effect1_dropShadow"></feBlend> <feBlend mode="normal" in="SourceGraphic" in2="effect1_dropShadow" result="shape"></feBlend> </filter> <linearGradient id="paint0_linear" x1="1304.59" y1="591.236" x2="1304.59" y2="165.998" gradientUnits="userSpaceOnUse"> <stop stop-color="#E4F1F5"></stop> <stop offset="1" stop-color="#B7E0ED"></stop> </linearGradient> </defs> </svg> 